<?xml version="1.0" encoding="UTF-8"?>
<svg xmlns="http://www.w3.org/2000/svg" version="1.1" viewBox="0 0 200 200">
  <defs>
    <style>
      .cls-1 {
        fill: none;
        stroke: #fff;
        stroke-dasharray: 3 3;
        stroke-width: 2px;
      }

      .cls-2 {
        fill: #333;
      }
    </style>
  </defs>
  <!-- Generator: Adobe Illustrator 28.7.1, SVG Export Plug-In . SVG Version: 1.2.0 Build 142)  -->
  <g>
    <g id="katman_1">
      <path class="cls-2" d="M100,5C47.5,5,5,47.5,5,100s42.5,95,95,95,95-42.5,95-95S152.5,5,100,5ZM145.9,150c0,6.4-5.1,11.5-11.5,11.5s-11.5-5.1-11.5-11.5v-38.5h-45.8v38.5c0,6.4-5.1,11.5-11.5,11.5s-11.5-5.1-11.5-11.5V50c0-6.4,5.1-11.5,11.5-11.5s11.5,5.1,11.5,11.5v38.5h45.8v-38.5c0-6.4,5.1-11.5,11.5-11.5s11.5,5.1,11.5,11.5v100Z"/>
      <circle class="cls-1" cx="100" cy="100" r="85"/>
    </g>
  </g>
</svg>